<svg width="329.601318" height="330.218719" viewBox="0 0 329.601 330.219" fill="none" xmlns="http://www.w3.org/2000/svg" xmlns:xlink="http://www.w3.org/1999/xlink">
	<desc>
			Created with Pixso.
	</desc>
	<defs/>
	<path id="Rectangle 41" d="M81.81 104.62Q84.04 106.28 85.27 108.81L86.66 111.65L83.96 112.96L82.58 110.12Q81.66 108.25 80.02 107.03L81.81 104.62ZM89.44 117.33L92.21 123.02L89.52 124.34L86.74 118.65L89.44 117.33ZM94.99 128.71L97.76 134.39L95.07 135.71L92.29 130.02L94.99 128.71ZM100.54 140.08L103.31 145.76L100.62 147.08L97.84 141.39L100.54 140.08ZM106.09 151.45L108.87 157.14L106.17 158.45L103.39 152.77L106.09 151.45ZM111.64 162.82L113.03 165.67Q113.52 166.67 114.26 167.52L111.99 169.49Q111 168.35 110.33 166.98L108.95 164.14L111.64 162.82ZM117.84 169.95Q118.9 170.33 120.02 170.41L123.63 170.69L123.4 173.68L119.79 173.4Q118.27 173.29 116.85 172.78L117.84 169.95ZM130.85 171.25L138.08 171.8L137.85 174.79L130.62 174.24L130.85 171.25ZM145.3 172.36L148.91 172.64Q150.64 172.77 152.24 173.4L151.14 176.19Q149.96 175.72 148.68 175.63L145.07 175.35L145.3 172.36ZM157.52 177.6Q158.5 179.03 159.01 180.68L160.16 184.37L157.3 185.26L156.15 181.57Q155.77 180.35 155.05 179.3L157.52 177.6ZM162.47 191.76L164.78 199.15L161.91 200.04L159.61 192.65L162.47 191.76ZM167.08 206.54L169.39 213.93L166.52 214.82L164.22 207.43L167.08 206.54ZM171.69 221.32L172.85 225.01Q173.14 225.95 173.64 226.8L171.06 228.32Q170.38 227.17 169.98 225.9L168.83 222.21L171.69 221.32ZM176.28 229.57Q177.1 230.11 178.02 230.45L181.45 231.72L180.42 234.53L176.99 233.27Q175.74 232.81 174.63 232.08L176.28 229.57ZM188.32 234.25L195.18 236.77L194.14 239.59L187.28 237.06L188.32 234.25ZM202.04 239.3L208.9 241.83L207.86 244.64L201 242.12L202.04 239.3ZM215.76 244.36L219.19 245.62Q221.99 246.65 223.9 248.86L221.64 250.82Q220.23 249.2 218.16 248.44L214.73 247.17L215.76 244.36ZM226.27 259.63Q225.46 262.44 223.35 264.54L221.22 266.68L219.1 264.55L221.23 262.42Q222.79 260.86 223.39 258.8L226.27 259.63ZM216.96 270.94L212.7 275.2L210.58 273.08L214.84 268.82L216.96 270.94ZM208.44 279.46L204.17 283.72L202.05 281.6L206.31 277.34L208.44 279.46ZM199.91 287.98L195.65 292.24L193.53 290.12L197.79 285.86L199.91 287.98ZM191.39 296.5L187.13 300.77L185.01 298.64L189.27 294.38L191.39 296.5ZM182.87 305.03L178.61 309.29L176.48 307.17L180.75 302.91L182.87 305.03ZM174.34 313.55L170.08 317.81L167.96 315.69L172.22 311.43L174.34 313.55ZM165.82 322.07L163.69 324.2Q162.07 325.83 159.96 326.7L158.81 323.93Q160.37 323.28 161.57 322.08L163.7 319.95L165.82 322.07ZM151.16 326.7Q149.05 325.83 147.43 324.2L145.22 321.99L147.34 319.87L149.55 322.08Q150.75 323.28 152.31 323.93L151.16 326.7ZM140.8 317.57L136.38 313.16L138.5 311.03L142.92 315.45L140.8 317.57ZM131.96 308.74L127.54 304.32L129.66 302.2L134.08 306.61L131.96 308.74ZM123.12 299.9L118.7 295.48L120.82 293.36L125.24 297.78L123.12 299.9ZM114.28 291.06L109.86 286.64L111.98 284.52L116.4 288.94L114.28 291.06ZM105.44 282.22L101.02 277.8L103.14 275.68L107.56 280.1L105.44 282.22ZM96.6 273.38L92.18 268.96L94.31 266.84L98.72 271.26L96.6 273.38ZM87.76 264.54L83.35 260.12L85.47 258L89.89 262.42L87.76 264.54ZM78.93 255.7L74.51 251.28L76.63 249.16L81.05 253.58L78.93 255.7ZM70.09 246.86L65.67 242.44L67.79 240.32L72.21 244.74L70.09 246.86ZM61.25 238.03L56.83 233.61L58.95 231.48L63.37 235.9L61.25 238.03ZM52.41 229.19L47.99 224.77L50.11 222.65L54.53 227.07L52.41 229.19ZM43.57 220.35L39.15 215.93L41.27 213.81L45.69 218.23L43.57 220.35ZM34.73 211.51L30.31 207.09L32.43 204.97L36.85 209.39L34.73 211.51ZM25.89 202.67L21.47 198.25L23.59 196.13L28.01 200.55L25.89 202.67ZM17.05 193.83L12.63 189.41L14.76 187.29L19.18 191.71L17.05 193.83ZM8.22 184.99L6.01 182.78Q4.38 181.16 3.51 179.05L6.28 177.9Q6.92 179.46 8.13 180.66L10.34 182.87L8.22 184.99ZM3.51 170.25Q4.38 168.14 6.01 166.52L8.18 164.35L10.3 166.47L8.13 168.64Q6.92 169.84 6.28 171.4L3.51 170.25ZM12.52 160L16.86 155.66L18.98 157.78L14.64 162.13L12.52 160ZM21.21 151.32L25.55 146.98L27.67 149.1L23.33 153.44L21.21 151.32ZM29.89 142.63L34.23 138.29L36.36 140.41L32.01 144.75L29.89 142.63ZM38.58 133.95L42.92 129.6L45.04 131.73L40.7 136.07L38.58 133.95ZM47.26 125.26L51.61 120.92L53.73 123.04L49.38 127.38L47.26 125.26ZM55.95 116.58L60.29 112.23L62.41 114.35L58.07 118.7L55.95 116.58ZM64.63 107.89L66.81 105.72Q68.8 103.73 71.44 102.89L72.35 105.75Q70.4 106.36 68.93 107.84L66.76 110.01L64.63 107.89Z" fill="#863817" fill-opacity="1.000000" fill-rule="evenodd"/>
	<path id="Rectangle 43" d="M101.29 72.74L166.96 7.07C170.87 3.16 177.2 3.16 181.1 7.07L322.53 148.49C326.43 152.39 326.43 158.72 322.53 162.63L256.35 228.8C253.59 231.57 249.46 232.47 245.8 231.1L195.62 212.43C192.71 211.35 190.47 208.97 189.55 206L176.02 162.01C174.82 158.11 171.37 155.33 167.31 154.99L137.98 152.5C134.47 152.21 131.37 150.08 129.83 146.91L99.36 84.18C97.5 80.35 98.27 75.76 101.29 72.74Z" fill="#4744CD" fill-opacity="1.000000" fill-rule="evenodd"/>
</svg>
